<?xml version="1.0" encoding="utf-8"?>
<!-- Generator: Adobe Illustrator 20.0.0, SVG Export Plug-In . SVG Version: 6.00 Build 0)  -->
<svg version="1.1" id="Layer_1" xmlns="http://www.w3.org/2000/svg" xmlns:xlink="http://www.w3.org/1999/xlink" x="0px" y="0px"
	 viewBox="0 0 473.9 473.9" style="enable-background:new 0 0 473.9 473.9;" xml:space="preserve">
<style type="text/css">
	.st0{fill:#8A1538;}
	.st1{fill:#444444;}
	.st2{fill:#E9B634;}
	.st3{fill:#D89F29;}
	.st4{fill:#DA8727;}
	.st5{fill:#DBDBDB;}
</style>
<circle class="st0" cx="237" cy="237" r="237"/>
<circle class="st1" cx="237" cy="260.7" r="122.2"/>
<g>
	<path class="st2" d="M233.1,127c-3.1,0-5.6-2.5-5.6-5.6V120c0-11.3,0-22,6.9-28.9c4.3-4.3,10.6-6.4,19.3-6.4h51.1
		c3.1,0,5.6,2.5,5.6,5.6c0,3.1-2.5,5.6-5.6,5.6h-51.1c-5.5,0-9.2,1-11.3,3.1c-3.6,3.7-3.6,11.7-3.6,21v1.4
		C238.7,124.5,236.1,127,233.1,127z"/>
	<path class="st2" d="M257.1,84.6h-3.4c-4.3,0-8.1,0.5-11.3,1.6l5.2,8.6L257.1,84.6z"/>
	<polygon class="st2" points="267.9,84.6 257.5,95.8 266.9,95.8 277.3,84.6 	"/>
	<path class="st2" d="M227.4,120v1.4c0,3.1,2.5,5.6,5.6,5.6c3.1,0,5.6-2.5,5.6-5.6V120c0-1.3,0-2.6,0-3.8l-10.7-10
		C227.5,110.4,227.4,115.1,227.4,120z"/>
	<polygon class="st2" points="288.2,84.6 277.7,95.8 287.5,95.8 297.9,84.6 	"/>
	<path class="st2" d="M234.3,91.1c-1.8,1.8-3.1,3.9-4.1,6.2l9.1,8.6c0.4-2.4,1.1-4.4,2.2-5.9l-6.1-9.9
		C235.1,90.4,234.7,90.7,234.3,91.1z"/>
	<path class="st2" d="M307.9,85.6l-9.5,10.3h6.4c3.1,0,5.6-2.5,5.6-5.6C310.4,88.3,309.4,86.6,307.9,85.6z"/>
</g>
<g>
	<path class="st3" d="M304.8,84.6h-6.8l-10.4,11.2h10.8l9.5-10.3C307,85,305.9,84.6,304.8,84.6z"/>
	<polygon class="st3" points="277.3,84.6 266.9,95.8 277.7,95.8 288.2,84.6 	"/>
	<path class="st3" d="M257.1,84.6l-9.4,10.2l-5.2-8.6c-2.7,0.9-5,2.2-6.9,3.9l6.1,9.9c0.2-0.3,0.5-0.7,0.8-1
		c2.1-2.1,5.8-3.1,11.3-3.1h3.8l10.4-11.2L257.1,84.6L257.1,84.6L257.1,84.6z"/>
	<path class="st3" d="M228,106.1l10.7,10c0-3.8,0.2-7.3,0.7-10.2l-9.1-8.6C229,100,228.4,102.9,228,106.1z"/>
</g>
<path class="st1" d="M271.1,154.4c0,10.2-73.6,10.2-73.6,0v-21.3c0-10.2,8.2-18.4,18.4-18.4h36.8c10.2,0,18.4,8.2,18.4,18.4
	L271.1,154.4L271.1,154.4z"/>
<polygon class="st4" points="321.7,73 316.6,87.7 326,100.2 310.4,100 301.4,112.8 296.8,97.9 281.9,93.2 294.6,84.2 294.4,68.7 
	306.9,78 "/>
<polygon class="st2" points="315.8,78.8 312.7,87.8 318.4,95.4 308.9,95.3 303.4,103.1 300.6,94 291.6,91.2 299.3,85.7 299.2,76.2 
	306.8,81.9 "/>
<path class="st5" d="M163.9,218.3c-7.1-7.1-5.2-20.6,4.3-30.1c9.5-9.5,22.9-11.5,30.1-4.4c7.1,7.1,5.2,20.6-4.3,30.1
	C184.5,223.4,171,225.4,163.9,218.3z"/>
</svg>
